<?xml version="1.0" encoding="utf-8"?>
<!-- Generator: Adobe Illustrator 28.2.0, SVG Export Plug-In . SVG Version: 6.00 Build 0)  -->
<svg version="1.1" id="Capa_1" xmlns="http://www.w3.org/2000/svg" xmlns:xlink="http://www.w3.org/1999/xlink" x="0px" y="0px"
	 viewBox="0 0 331 331" style="enable-background:new 0 0 331 331;" xml:space="preserve">
<style type="text/css">
	.st0{fill-rule:evenodd;clip-rule:evenodd;fill:#F9F9F9;}
</style>
<g>
	<g>
		<g>
			<path class="st0" d="M288.25,136.8c2.5,6.82,4.41,13.83,5.66,20.94c-0.15-3.41-0.44-6.77-0.86-10.11h0.14
				c-0.09-0.44-0.2-0.88-0.3-1.33c-8.16-61.55-61.98-109.1-127.22-109.1C95.07,37.2,37.8,92.93,37.37,161.84h0.08
				c-0.03,1.09-0.08,2.16-0.08,3.26h29.69c1.88-60.1,51.82-108.24,113.17-108.24c19.87,0,36.59,4.09,50.82,11.36
				C261.92,81.64,283.52,115.22,288.25,136.8z"/>
			<path class="st0" d="M43.01,193.4c-2.48-6.81-4.41-13.83-5.64-20.95c0.12,3.41,0.43,6.77,0.84,10.11h-0.14
				c0.09,0.44,0.2,0.88,0.28,1.33c8.2,61.54,62.01,109.09,127.23,109.09c70.61,0,127.89-55.73,128.33-124.63h-0.07
				c0.03-1.08,0.08-2.16,0.08-3.25h-29.7c-1.89,60.09-51.81,108.25-113.17,108.25c-19.88,0-36.58-4.11-50.81-11.38
				C69.36,248.55,47.76,214.97,43.01,193.4z"/>
		</g>
	</g>
</g>
</svg>
